<?xml version="1.0" encoding="UTF-8"?>
<svg id="Layer_1" xmlns="http://www.w3.org/2000/svg" version="1.1" viewBox="0 0 300 98.3">
  <!-- Generator: Adobe Illustrator 29.8.5, SVG Export Plug-In . SVG Version: 2.1.1 Build 2)  -->
  <defs>
    <style>
      .st0 {
        fill: #fff;
      }

      .st1 {
        fill: #dd1f26;
      }
    </style>
  </defs>
  <path class="st0" d="M29.92,15.31c1.24-.04,2.47-.08,3.71-.12-.04,14.9-.09,29.78-.13,44.67-1.24,1.35-2.47,2.71-3.7,4.09.04-16.21.08-32.43.12-48.64Z"/>
  <g>
    <g>
      <path class="st0" d="M106.4,13.65c-.01,2.68-.03,5.36-.04,8.03-1.24,1-2.49,2.01-3.74,3.02.02-3.67.04-7.33.06-11,1.24-.02,2.48-.03,3.72-.05Z"/>
      <path class="st0" d="M70,14.25l-.07,11.69c-1.23-.98-2.47-1.97-3.7-2.97.02-2.88.03-5.76.05-8.64,1.24-.03,2.48-.05,3.72-.08Z"/>
      <path class="st0" d="M33.63,15.19c-.04,14.9-.09,29.78-.13,44.67-1.24,1.35-2.47,2.71-3.7,4.09.04-16.21.08-32.43.12-48.64,1.24-.04,2.47-.08,3.71-.12Z"/>
      <path class="st0" d="M289.4,74.84v-31.38l-6.44,2.28-6.18,2.16-.05-27.46c.14.01,3.07.11,3.07.11l1.5-2.17c2.34-3.39,5.41-6.86,7.77-10.33L299.45,0H0l3.35,2.6,7.25,5.62v66.62l-8.42,10.08-2.18,2.61,7.44-2.61,3.16-1.11,5.95-1.43c6.18-1.48,12.46-2.88,18.69-4.16l1.6-.32,1.07-1.24c2.85-3.29,5.79-6.57,8.78-9.81l-.05,9.13,5.68-.99c4.74-.82,9.58-1.6,14.36-2.3l1.81-.27,1.87-.26c4.77-.67,9.61-1.29,14.41-1.84l1.81-.21,1.8-.19c4.79-.52,9.65-.99,14.45-1.38l1.84-.16,1.87-.14c4.8-.37,9.67-.68,14.47-.92l1.8-.09,1.82-.08c4.81-.22,9.69-.37,14.5-.46l1.85-.04,1.86-.02c2.38-.03,4.78-.05,7.16-.05s4.9.02,7.34.05l1.78.03,1.84.03h.02c10.85.21,21.85.74,32.66,1.56l1.83.14,1.79.15c4.8.4,9.66.87,14.45,1.39l1.8.19,1.81.21c6.28.72,12.64,1.56,18.9,2.49l1.95.29,1.59-1.15c3.35-2.42,6.52-4.76,9.6-7.07l.05,10.04,3.95.71c10.71,1.93,21.51,4.2,32.09,6.74l5.95,1.43,10.6,3.72-10.6-12.69ZM47.94,58.46c-4.57,4.8-9.13,9.81-13.67,15.04-6.3,1.29-12.58,2.69-18.85,4.19V4.82h32.76c-.08,17.88-.16,35.76-.24,53.64ZM84.22,65.53c-4.85.56-9.69,1.18-14.53,1.86.06-9.38.11-18.75.16-28.13-1.23-.97-2.46-1.95-3.7-2.93-.06,10.53-.12,21.06-.18,31.59-4.83.71-9.66,1.49-14.48,2.32.11-21.8.22-43.61.32-65.42h32.76c-.11,20.24-.23,40.47-.35,60.71ZM120.9,22.13c-2.28,1.83-4.56,3.68-6.84,5.54,2.27,1.78,4.54,3.55,6.81,5.31-.04,9.84-.07,19.68-.1,29.53-4.87.24-9.74.55-14.6.92.04-9.78.09-19.56.13-29.34-1.24,1.05-2.49,2.1-3.74,3.16-.04,8.82-.09,17.65-.13,26.48-4.86.4-9.72.87-14.57,1.39.11-20.1.23-40.2.34-60.3h32.76c-.02,5.77-.04,11.54-.06,17.31ZM142.78,61.81c0-9.51.02-19.02.03-28.53-1.25.98-2.5,1.96-3.74,2.94-.01,8.55-.02,17.1-.04,25.65-4.87.09-9.74.25-14.61.46.05-19.17.11-38.34.17-57.51h14.52c-.01,6.42-.02,12.84-.02,19.25,1.24-.95,2.48-1.9,3.73-2.85,0-5.47.01-10.93.01-16.4h14.52c0,5.7.01,11.4.02,17.11-2.28,1.76-4.55,3.53-6.82,5.3,2.27,1.8,4.55,3.6,6.83,5.41.01,9.72.01,19.45.02,29.17-4.87-.06-9.75-.06-14.62,0Z"/>
      <path d="M157.4,61.81c-4.87-.06-9.75-.06-14.62,0,0-9.51.02-19.02.03-28.53-1.25.98-2.5,1.96-3.74,2.94-.01,8.55-.02,17.1-.04,25.65-4.87.09-9.74.25-14.61.46.05-19.17.11-38.34.17-57.51h14.52c-.01,6.42-.02,12.84-.02,19.25,1.24-.95,2.48-1.9,3.73-2.85,0-5.47.01-10.93.01-16.4h14.52c0,5.7.01,11.4.02,17.11-2.28,1.76-4.55,3.53-6.82,5.3,2.27,1.8,4.55,3.6,6.83,5.41.01,9.72.01,19.45.02,29.17Z"/>
      <path d="M120.96,4.82h-32.76c-.11,20.1-.23,40.2-.34,60.3,4.85-.52,9.71-.99,14.57-1.39.04-8.83.09-17.66.13-26.48,1.25-1.06,2.5-2.11,3.74-3.16-.04,9.78-.09,19.56-.13,29.34,4.86-.37,9.73-.68,14.6-.92.03-9.85.06-19.69.1-29.53-2.27-1.76-4.54-3.53-6.81-5.31,2.28-1.86,4.56-3.71,6.84-5.54.02-5.77.04-11.54.06-17.31ZM106.36,21.68c-1.24,1-2.49,2.01-3.74,3.02.02-3.67.04-7.33.06-11,1.24-.02,2.48-.03,3.72-.05-.01,2.68-.03,5.36-.04,8.03Z"/>
      <path d="M51.81,4.82c-.1,21.81-.21,43.62-.32,65.42,4.82-.83,9.65-1.61,14.48-2.32.06-10.53.12-21.06.18-31.59,1.24.98,2.47,1.96,3.7,2.93-.05,9.38-.1,18.75-.16,28.13,4.84-.68,9.68-1.3,14.53-1.86.12-20.24.24-40.47.35-60.71h-32.76ZM69.93,25.94c-1.23-.98-2.47-1.97-3.7-2.97.02-2.88.03-5.76.05-8.64,1.24-.03,2.48-.05,3.72-.08l-.07,11.69Z"/>
      <path d="M15.42,4.82v72.87c6.27-1.5,12.55-2.9,18.85-4.19,4.54-5.23,9.1-10.24,13.67-15.04.08-17.88.16-35.76.24-53.64H15.42ZM33.5,59.86c-1.24,1.35-2.47,2.71-3.7,4.09.04-16.21.08-32.43.12-48.64,1.24-.04,2.47-.08,3.71-.12-.04,14.9-.09,29.78-.13,44.67Z"/>
    </g>
    <g>
      <path class="st1" d="M175.57,27.1c-.01-4.54-.03-9.07-.04-13.61,1.24,0,2.48.02,3.72.03.01,3.98.03,7.95.04,11.93,4.86,2,9.72,4.06,14.58,6.17-.04-8.93-.08-17.86-.12-26.79h-32.76c.01,8.67.02,17.34.04,26,6.1,2.42,12.21,4.9,18.32,7.48.02,5.17.04,10.35.05,15.52-1.25-.05-2.49-.11-3.74-.15-.01-4.56-.03-9.12-.04-13.68-4.86-2.04-9.73-4.02-14.58-5.97l.04,27.85c11,.21,21.99.74,32.96,1.58-.04-9.52-.09-19.03-.13-28.55-6.11-2.7-12.21-5.29-18.31-7.8h0Z"/>
      <path class="st1" d="M197.37,4.82c.1,19.64.19,39.28.29,58.92,4.86.4,9.72.87,14.57,1.4-.11-20.1-.23-40.21-.34-60.31h-14.52Z"/>
      <path class="st1" d="M215.52,4.82c.12,20.24.23,40.48.35,60.72,6.36.73,12.72,1.57,19.06,2.51,4.54-3.28,9.08-6.64,13.61-10.1-.09-17.71-.17-35.42-.26-53.13h-32.76ZM230.35,57.97c-.08-14.57-.17-29.15-.25-43.72,1.24.03,2.48.05,3.72.08.08,13.65.15,27.3.23,40.95-1.23.9-2.47,1.8-3.7,2.69h0Z"/>
      <path class="st1" d="M270.2,64.04c-1.2-.22-2.4-.43-3.6-.64-.02-5.32-.03-10.63-.05-15.95,1.8-1.48,3.6-2.99,5.4-4.52-.01-4.94-.02-9.88-.03-14.82-1.81,1.61-3.61,3.2-5.41,4.76-.02-5.86-.04-11.72-.05-17.58,3.62.11,7.25.23,10.87.35,2.41-3.49,4.83-7.07,7.25-10.73-10.89,0-21.78,0-32.67,0,.1,22,.2,44,.3,65.99,10.83,1.95,21.63,4.22,32.37,6.79v-27.41c-4.8,1.7-9.6,3.34-14.39,4.91,0,2.95.01,5.9.02,8.84h0Z"/>
    </g>
    <g>
      <path class="st0" d="M82.09,82.72h-3.57v15.4h2.42v-5.79h1.14c2.42,0,3.61-1.34,3.61-3.81v-2c0-2.46-1.19-3.81-3.61-3.81ZM83.27,88.69c0,1.1-.42,1.45-1.19,1.45h-1.14v-5.21h1.14c.77,0,1.19.35,1.19,1.45v2.31Z"/>
      <path class="st0" d="M100.79,93.88c0-1.61-.4-2.77-1.61-3.28,1.08-.51,1.59-1.54,1.59-3.12v-1.21c0-2.38-1.08-3.54-3.59-3.54h-3.65v15.4h2.42v-6.27h.84c1.1,0,1.59.53,1.59,1.96v2.42c0,1.25.09,1.5.22,1.89h2.46c-.24-.57-.26-1.12-.26-1.87v-2.38ZM98.35,88.03c0,1.23-.55,1.63-1.45,1.63h-.95v-4.73h1.17c.86,0,1.23.48,1.23,1.59v1.52Z"/>
      <path class="st0" d="M112.45,82.55c-2.38,0-3.67,1.41-3.67,3.87v8.01c0,2.47,1.3,3.87,3.67,3.87s3.67-1.41,3.67-3.87v-8.01c0-2.46-1.3-3.87-3.67-3.87ZM113.7,94.58c0,1.1-.48,1.52-1.25,1.52s-1.25-.42-1.25-1.52v-8.32c0-1.1.48-1.52,1.25-1.52s1.25.42,1.25,1.52v8.32Z"/>
      <polygon class="st0" points="129.42 93.66 127.63 82.72 124.27 82.72 124.27 98.12 126.38 98.12 126.38 87.23 128.18 98.12 130.47 98.12 132.14 87.08 132.14 98.12 134.43 98.12 134.43 82.72 131.07 82.72 129.42 93.66"/>
      <path class="st0" d="M146.27,82.55c-2.38,0-3.67,1.41-3.67,3.87v8.01c0,2.47,1.3,3.87,3.67,3.87s3.67-1.41,3.67-3.87v-8.01c0-2.46-1.3-3.87-3.67-3.87ZM147.52,94.58c0,1.1-.48,1.52-1.25,1.52s-1.25-.42-1.25-1.52v-8.32c0-1.1.48-1.52,1.25-1.52s1.25.42,1.25,1.52v8.32Z"/>
      <polygon class="st0" points="157.41 84.92 159.93 84.92 159.93 98.12 162.35 98.12 162.35 84.92 164.89 84.92 164.89 82.72 157.41 82.72 157.41 84.92"/>
      <rect class="st0" x="172.54" y="82.72" width="2.42" height="15.4"/>
      <path class="st0" d="M186.8,82.55c-2.38,0-3.67,1.41-3.67,3.87v8.01c0,2.47,1.3,3.87,3.67,3.87s3.67-1.41,3.67-3.87v-8.01c0-2.46-1.3-3.87-3.67-3.87ZM188.05,94.58c0,1.1-.48,1.52-1.25,1.52s-1.25-.42-1.25-1.52v-8.32c0-1.1.48-1.52,1.25-1.52s1.25.42,1.25,1.52v8.32Z"/>
      <polygon class="st0" points="204.14 91.94 201.65 82.72 198.62 82.72 198.62 98.12 200.8 98.12 200.8 86.97 203.81 98.12 206.3 98.12 206.3 82.72 204.14 82.72 204.14 91.94"/>
      <path class="st0" d="M216.75,86.27c0-1.1.44-1.52,1.21-1.52s1.21.42,1.21,1.52v.64h2.29v-.48c0-2.47-1.21-3.87-3.56-3.87s-3.56,1.41-3.56,3.87c0,4.4,4.73,4.99,4.73,8.16,0,1.1-.48,1.5-1.26,1.5s-1.25-.4-1.25-1.5v-1.1h-2.29v.95c0,2.46,1.23,3.87,3.61,3.87s3.61-1.41,3.61-3.87c0-4.4-4.73-4.99-4.73-8.16Z"/>
    </g>
  </g>
</svg>